<mxfile host="app.diagrams.net" modified="2024-04-23T16:47:10.697Z" agent="Mozilla/5.0 (Windows NT 10.0; Win64; x64) AppleWebKit/537.36 (KHTML, like Gecko) Chrome/124.0.0.0 Safari/537.36" etag="NJa42X6T71msyIS2rb5-" version="24.2.8" type="device">
  <diagram name="PÃ¡gina-1" id="MFkZVSth5aSDWVOUmSeP">
    <mxGraphModel dx="1434" dy="786" grid="1" gridSize="10" guides="1" tooltips="1" connect="1" arrows="1" fold="1" page="1" pageScale="1" pageWidth="1169" pageHeight="827" math="0" shadow="0">
      <root>
        <mxCell id="0" />
        <mxCell id="1" parent="0" />
        <mxCell id="QyMVrTQKch6omh218mac-1" value="AuthServices" style="rounded=0;whiteSpace=wrap;html=1;" vertex="1" parent="1">
          <mxGeometry x="870" y="160" width="120" height="60" as="geometry" />
        </mxCell>
        <mxCell id="QyMVrTQKch6omh218mac-2" value="PatientServices" style="rounded=0;whiteSpace=wrap;html=1;" vertex="1" parent="1">
          <mxGeometry x="870" y="270" width="120" height="60" as="geometry" />
        </mxCell>
        <mxCell id="QyMVrTQKch6omh218mac-3" value="SpecialistServices" style="rounded=0;whiteSpace=wrap;html=1;" vertex="1" parent="1">
          <mxGeometry x="870" y="383.5" width="120" height="60" as="geometry" />
        </mxCell>
        <mxCell id="QyMVrTQKch6omh218mac-4" value="AppoinmentServices" style="rounded=0;whiteSpace=wrap;html=1;" vertex="1" parent="1">
          <mxGeometry x="870" y="490" width="120" height="60" as="geometry" />
        </mxCell>
        <mxCell id="QyMVrTQKch6omh218mac-5" value="&lt;font style=&quot;font-size: 18px;&quot;&gt;Microservicios&lt;/font&gt;" style="text;html=1;align=center;verticalAlign=middle;resizable=0;points=[];autosize=1;strokeColor=none;fillColor=none;" vertex="1" parent="1">
          <mxGeometry x="860" y="105" width="140" height="40" as="geometry" />
        </mxCell>
        <mxCell id="QyMVrTQKch6omh218mac-6" value="Gateway" style="rounded=0;whiteSpace=wrap;html=1;" vertex="1" parent="1">
          <mxGeometry x="560" y="310" width="120" height="60" as="geometry" />
        </mxCell>
        <mxCell id="QyMVrTQKch6omh218mac-10" style="edgeStyle=orthogonalEdgeStyle;rounded=0;orthogonalLoop=1;jettySize=auto;html=1;entryX=0;entryY=0.5;entryDx=0;entryDy=0;" edge="1" parent="1" source="QyMVrTQKch6omh218mac-7" target="QyMVrTQKch6omh218mac-6">
          <mxGeometry relative="1" as="geometry" />
        </mxCell>
        <mxCell id="QyMVrTQKch6omh218mac-7" value="Frontend" style="rounded=0;whiteSpace=wrap;html=1;" vertex="1" parent="1">
          <mxGeometry x="310" y="310" width="120" height="60" as="geometry" />
        </mxCell>
        <mxCell id="QyMVrTQKch6omh218mac-9" style="edgeStyle=orthogonalEdgeStyle;rounded=0;orthogonalLoop=1;jettySize=auto;html=1;entryX=0;entryY=0.5;entryDx=0;entryDy=0;" edge="1" parent="1" source="QyMVrTQKch6omh218mac-8" target="QyMVrTQKch6omh218mac-7">
          <mxGeometry relative="1" as="geometry" />
        </mxCell>
        <mxCell id="QyMVrTQKch6omh218mac-8" value="Cliente" style="rounded=0;whiteSpace=wrap;html=1;" vertex="1" parent="1">
          <mxGeometry x="50" y="310" width="120" height="60" as="geometry" />
        </mxCell>
        <mxCell id="QyMVrTQKch6omh218mac-13" value="" style="endArrow=none;html=1;rounded=0;" edge="1" parent="1">
          <mxGeometry width="50" height="50" relative="1" as="geometry">
            <mxPoint x="680" y="339.5" as="sourcePoint" />
            <mxPoint x="840" y="340" as="targetPoint" />
          </mxGeometry>
        </mxCell>
        <mxCell id="QyMVrTQKch6omh218mac-15" value="" style="endArrow=none;html=1;rounded=0;" edge="1" parent="1">
          <mxGeometry width="50" height="50" relative="1" as="geometry">
            <mxPoint x="840" y="520" as="sourcePoint" />
            <mxPoint x="840" y="200" as="targetPoint" />
          </mxGeometry>
        </mxCell>
        <mxCell id="QyMVrTQKch6omh218mac-16" value="" style="endArrow=classic;html=1;rounded=0;" edge="1" parent="1">
          <mxGeometry width="50" height="50" relative="1" as="geometry">
            <mxPoint x="840" y="200" as="sourcePoint" />
            <mxPoint x="870" y="200" as="targetPoint" />
          </mxGeometry>
        </mxCell>
        <mxCell id="QyMVrTQKch6omh218mac-19" value="" style="endArrow=classic;html=1;rounded=0;" edge="1" parent="1">
          <mxGeometry width="50" height="50" relative="1" as="geometry">
            <mxPoint x="840" y="299.5" as="sourcePoint" />
            <mxPoint x="870" y="299.5" as="targetPoint" />
          </mxGeometry>
        </mxCell>
        <mxCell id="QyMVrTQKch6omh218mac-24" value="" style="endArrow=classic;html=1;rounded=0;entryX=0;entryY=0.5;entryDx=0;entryDy=0;" edge="1" parent="1" target="QyMVrTQKch6omh218mac-4">
          <mxGeometry width="50" height="50" relative="1" as="geometry">
            <mxPoint x="840" y="519.5" as="sourcePoint" />
            <mxPoint x="950" y="519.5" as="targetPoint" />
          </mxGeometry>
        </mxCell>
        <mxCell id="QyMVrTQKch6omh218mac-25" value="" style="endArrow=classic;html=1;rounded=0;entryX=0;entryY=0.5;entryDx=0;entryDy=0;" edge="1" parent="1" target="QyMVrTQKch6omh218mac-3">
          <mxGeometry width="50" height="50" relative="1" as="geometry">
            <mxPoint x="840" y="414" as="sourcePoint" />
            <mxPoint x="920" y="414.5" as="targetPoint" />
          </mxGeometry>
        </mxCell>
        <mxCell id="QyMVrTQKch6omh218mac-26" value="&lt;font style=&quot;font-size: 18px;&quot;&gt;API APPOINMENTS&lt;/font&gt;" style="text;html=1;align=center;verticalAlign=middle;whiteSpace=wrap;rounded=0;" vertex="1" parent="1">
          <mxGeometry x="430" y="10" width="210" height="30" as="geometry" />
        </mxCell>
      </root>
    </mxGraphModel>
  </diagram>
</mxfile>
